<svg xmlns="http://www.w3.org/2000/svg" viewBox="0 0 591 128" height="40" width="184.7"><g fill="currentColor"><path d="M86.372 17.282c3.252.747 6.628 2.74 6.628 7.345 0 4.108-1.877 9.212-6.253 17.926C72.615 71.058 41.476 115 23.592 115c-5.127 0-9.254-4.73-8.504-15.684.5-7.966 2.752-19.42 6.003-35.105 3.252-15.684 6.253-28.88 6.879-37.967.375-5.601-.875-6.971.875-7.469.626-.25 6.378-1.12 11.131.871 4.25 1.743 5.502 5.104 5.502 8.838 0 5.44-3.265 15.33-7.015 26.586l-.411 1.233a987.693 987.693 0 0 0-2.709 8.218l-.414 1.286-.206.644a865.554 865.554 0 0 0-2.928 9.233l-.325 1.055c-.217.705-.432 1.41-.644 2.113l-.254.844-.376 1.262-.247.838-.243.834c-3.46 11.93-5.756 22.537-2.487 22.537 8.88 0 45.897-60.748 52.024-76.184 1.626-3.984 2.002-7.22 2.126-9.335 0-2.74 1.875-2.988 5.003-2.366ZM163.126 19c6.78 0 9.042 2.465 9.042 5.175 0 2.958-2.135 6.41-3.767 9.614-1.381 2.71-2.888 5.915-4.646 9.243l10.799-.247c2.888.122 2.636 1.356 2.134 2.217-6.03.866-10.927 1.483-14.944 2.1a862.634 862.634 0 0 0-2.663 5.268l-.537 1.074-.536 1.078-.267.54-.534 1.083c-6.128 12.464-11.785 25.298-11.785 31.626 0 3.08 1.38 3.697 3.64 3.697 3.778 0 9.68-4.64 14.386-9.194.391-.966.793-1.962 1.197-2.97l.299-.747.298-.75.446-1.128c.1-.25.198-.502.296-.753l.294-.751.146-.375a205.84 205.84 0 0 0 4.028-11.023c1.006-3.546.378-4.307 1.51-4.687.379-.128 7.804-.887 7.804 5.827 0 5.194-4.28 12.543-7.048 17.23-1.006 1.522-.252 1.268 1.887-.758 5.16-4.562 16.109-12.924 21.52-12.924 2.517 0 5.663 3.547 5.663 6.335 0 1.273-1.544 4.5-3.061 7.82l-.253.555-.218.484-.216.482c-1.822 4.089-3.239 7.89-1.285 7.89 2.14 0 9.565-5.068 12.08-7.856l.582-.585C211.784 71.035 223.758 57 233.313 57c4.011 0 6.644 2.457 6.644 6.265 0 2.949-1.002 1.842-3.76 2.58-10.276 3.194-18.047 18.673-18.047 25.309 0 1.842.376 3.315 1.755 3.315 3.383 0 9.651-7.616 10.904-12.04-3.51-7.495 1.63-14.742 6.14-14.742 2.256 0 4.387 1.966 4.387 6.39 0 4.545-2.38 10.441-5.89 15.478 4.388.246 8.022-2.58 11.405-5.897l.068-.066a87.59 87.59 0 0 1 1.295-5.526c.86-3.242 1.967-8.726 2.458-11.343.614-3.865.492-5.982.737-6.856.246-.498.738-.747 1.475-.747 2.705 0 8.482 3.614 8.482 8.226 0 3.24-2.827 10.595-4.302 14.709-2.09 5.858-3.197 10.968-1.967 10.968 1.475 0 6.392-7.355 11.679-17.202 2.58-4.736 6.145-11.84 7.867-17.949.245-.622.367-.872.983-.872 2.457 0 7.374 3.615 7.374 6.73 0 6.233-20.283 37.27-30.853 37.27-4.057-.002-6.147-4.737-6.147-9.847 0-.92.07-1.924.184-2.956-3.296 2.982-7.658 5.086-13.622 4.799-3.758 4.056-8.397 7.004-13.16 7.004-6.723 0-10.353-4.971-10.402-12.021C202.39 95.127 197.055 99 191.721 99c-3.775-.003-6.418-2.917-6.418-6.844 0-3.293 1.511-7.856 3.524-11.53.25-.506.125-.758-.253-.632-2.168.747-6.614 4.62-11.12 8.63l-.693.618-.347.31-.691.616c-4.83 4.304-9.397 8.322-10.934 8.322-1.888 0-5.789-2.786-5.789-5.067 0-.196.606-1.727 1.546-4.037-4.232 4.03-10.377 8.614-16.38 8.614-4.899 0-8.776-2.79-9.138-8.691-3.91 4.337-9.884 9.691-18.66 9.691-7.461 0-11.742-4.06-12.985-9.69-4.327 4.235-9.118 7.69-15.52 7.69C84.196 97 78 95.045 78 88.083c0-3.541 1.263-8.306 4.426-14.782 1.77-3.664 3.668-7.207 5.691-8.918 3.415-2.932 12.014-1.832 10.875 1.221-.885 2.32-4.805 7.208-7.588 11.85-2.401 4.155-4.047 8.063-4.047 10.75 0 2.076 1.01 3.298 3.414 3.298 4.091 0 8.706-2.754 12.23-5.805l-.001-.039C103 73.342 114.494 60 124.116 60c5.122 0 8.62 2.95 8.62 7.185 0 3.591-2.5 8.082-8.247 12.444-3.873 2.95-7.871 5.131-12.12 5.644 0 4.491 2.25 7.955 6.998 7.955 5.524 0 11.856-4.15 16-8.458 1.413-7.867 6.72-19.639 12.174-30.898l.563-1.159c.656-1.349 1.313-2.688 1.964-4.01-4.994.66-6.022.815-6.734.851l-.098.004-.048.002-.148.003-.05.001h-.103l-.027.001h-.201c-4.394 0-5.4-1.85-5.4-3.574 0-1.11.503-2.218.754-2.59.502-.985.88-.615 2.26-.492 3.265.493 5.4.617 12.305.493 2.763-5.668 5.147-10.722 6.655-14.543 3.14-8.011 2.511-9.859 3.893-9.859Zm191.016-3c3.489 0 5.858 2.482 5.858 7.073 0 10.92-16.956 37.474-31.542 46.036-1.747 2.978-4.739 13.029-4.739 19.358 0 3.35.749 5.707 2.992 5.707 4.365 0 11.845-6.825 15.958-10.919l.749-.743c.498-.496 3.24 0 2.12 1.366l-.998 1.24C339.305 91.57 330.702 101 322.473 101c-5.113-.001-8.777-3.92-9.384-11.758-3.908 4.349-9.9 9.758-18.721 9.758C285.37 99 281 93.1 281 85.658 281 73.342 292.494 60 302.115 60c5.123 0 8.62 2.95 8.62 7.185 0 3.591-2.498 8.082-8.246 12.444-3.873 2.95-7.87 5.131-12.12 5.644 0 4.491 2.25 7.955 6.997 7.955 5.383 0 11.533-3.939 15.677-8.126.374-7.684 3.169-18.153 9.183-31.504C327.71 41.933 341.176 16 354.142 16ZM124.238 67.057c-2.996 0-8.994 6.157-11.118 13.212 7.496-3.078 12.494-9.237 12.494-11.93 0-.899-.5-1.282-1.376-1.282Zm178 0c-2.998 0-8.995 6.157-11.12 13.212 7.498-3.078 12.496-9.237 12.496-11.93 0-.899-.5-1.282-1.376-1.282Zm51.654-43.24c-.873 0-3.366 2.73-8.103 9.926-9.352 13.897-14.962 26.306-14.962 26.431 3.99-2.977 11.72-13.773 17.331-23.08 4.363-7.32 6.856-13.278 5.734-13.278ZM104.179 53.51c0 2.321-2.657 4.031-6.324 4.031-2.275 0-4.427-.61-5.184-1.343-1.393-1.222-.506-6.842 1.77-8.673 2.657-2.077 9.738 2.443 9.738 5.985ZM411.752 52.412h-8.568V50.48c0-1.96-.462-3.654-1.386-5.082-.924-1.428-2.478-2.142-4.662-2.142-1.176 0-2.128.224-2.856.672a5.632 5.632 0 0 0-1.764 1.68 7.105 7.105 0 0 0-.924 2.478c-.168.924-.252 1.89-.252 2.898 0 1.176.042 2.156.126 2.94.084.784.294 1.484.63 2.1.336.616.826 1.148 1.47 1.596.644.448 1.526.896 2.646 1.344l6.552 2.604c1.904.728 3.444 1.582 4.62 2.562 1.176.98 2.1 2.114 2.772 3.402.616 1.344 1.036 2.87 1.26 4.578.224 1.708.336 3.654.336 5.838 0 2.52-.252 4.858-.756 7.014-.504 2.156-1.316 3.99-2.436 5.502-1.176 1.568-2.716 2.8-4.62 3.696-1.904.896-4.228 1.344-6.972 1.344-2.072 0-4.004-.364-5.796-1.092-1.792-.728-3.332-1.736-4.62-3.024a14.716 14.716 0 0 1-3.066-4.494c-.756-1.708-1.134-3.57-1.134-5.586v-3.192h8.568v2.688c0 1.568.462 2.982 1.386 4.242.924 1.26 2.478 1.89 4.662 1.89 1.456 0 2.59-.21 3.402-.63a4.523 4.523 0 0 0 1.89-1.806c.448-.784.714-1.722.798-2.814.084-1.092.126-2.31.126-3.654 0-1.568-.056-2.856-.168-3.864-.112-1.008-.336-1.82-.672-2.436a4.723 4.723 0 0 0-1.554-1.512c-.644-.392-1.498-.812-2.562-1.26l-6.132-2.52c-3.696-1.512-6.174-3.514-7.434-6.006-1.26-2.492-1.89-5.614-1.89-9.366 0-2.24.308-4.368.924-6.384.616-2.016 1.54-3.752 2.772-5.208 1.176-1.456 2.674-2.618 4.494-3.486 1.82-.868 3.99-1.302 6.51-1.302 2.128 0 4.074.392 5.838 1.176 1.764.784 3.29 1.82 4.578 3.108 2.576 2.688 3.864 5.768 3.864 9.24v4.2ZM423.764 95V43.256h-9.912v-8.064h28.392v8.064h-9.912V95h-8.568Zm49.98-59.808V81.56c0 1.96-.35 3.766-1.05 5.418a13.8 13.8 0 0 1-2.982 4.41 14.254 14.254 0 0 1-4.452 3.024c-1.68.728-3.472 1.092-5.376 1.092-1.904 0-3.682-.364-5.334-1.092a14.4 14.4 0 0 1-4.41-3.024 14.4 14.4 0 0 1-3.024-4.41c-.728-1.652-1.092-3.458-1.092-5.418V35.192h8.568V80.72c0 2.128.504 3.696 1.512 4.704 1.008 1.008 2.268 1.512 3.78 1.512s2.772-.504 3.78-1.512 1.512-2.576 1.512-4.704V35.192h8.568ZM481.808 95V35.192h12.684c4.928 0 8.666 1.344 11.214 4.032 2.548 2.688 3.822 6.496 3.822 11.424V78.62c0 5.6-1.358 9.73-4.074 12.39-2.716 2.66-6.622 3.99-11.718 3.99h-11.928Zm8.568-51.744v43.68h3.948c2.408 0 4.116-.602 5.124-1.806 1.008-1.204 1.512-3.094 1.512-5.67V50.648c0-2.352-.476-4.172-1.428-5.46-.952-1.288-2.688-1.932-5.208-1.932h-3.948ZM517.844 95V35.192h8.568V95h-8.568Zm16.38-45.696c0-2.408.42-4.536 1.26-6.384.84-1.848 1.96-3.388 3.36-4.62a14.205 14.205 0 0 1 4.578-2.688 15.13 15.13 0 0 1 5.166-.924c1.736 0 3.458.308 5.166.924a15.227 15.227 0 0 1 4.662 2.688c1.344 1.232 2.436 2.772 3.276 4.62.84 1.848 1.26 3.976 1.26 6.384v31.584c0 2.52-.42 4.676-1.26 6.468-.84 1.792-1.932 3.276-3.276 4.452a14.404 14.404 0 0 1-4.662 2.772 15.13 15.13 0 0 1-5.166.924 15.13 15.13 0 0 1-5.166-.924 13.478 13.478 0 0 1-4.578-2.772c-1.4-1.176-2.52-2.66-3.36-4.452-.84-1.792-1.26-3.948-1.26-6.468V49.304Zm8.568 31.584c0 2.072.574 3.598 1.722 4.578 1.148.98 2.506 1.47 4.074 1.47s2.926-.49 4.074-1.47c1.148-.98 1.722-2.506 1.722-4.578V49.304c0-2.072-.574-3.598-1.722-4.578-1.148-.98-2.506-1.47-4.074-1.47s-2.926.49-4.074 1.47c-1.148.98-1.722 2.506-1.722 4.578v31.584Z"></path></g></svg>